<svg width="100%" viewBox="0 0 680 220" role="img" xmlns="http://www.w3.org/2000/svg" style=""><title style="fill:rgb(0, 0, 0);stroke:none;color:rgb(11, 11, 11);stroke-width:1px;stroke-linecap:butt;stroke-linejoin:miter;opacity:1;font-family:&quot;Anthropic Sans&quot;, -apple-system, BlinkMacSystemFont, &quot;Segoe UI&quot;, sans-serif;font-size:16px;font-weight:400;text-anchor:start;dominant-baseline:auto">Hand-drawn AI assistant avatar</title><desc style="fill:rgb(0, 0, 0);stroke:none;color:rgb(11, 11, 11);stroke-width:1px;stroke-linecap:butt;stroke-linejoin:miter;opacity:1;font-family:&quot;Anthropic Sans&quot;, -apple-system, BlinkMacSystemFont, &quot;Segoe UI&quot;, sans-serif;font-size:16px;font-weight:400;text-anchor:start;dominant-baseline:auto">Three versions of a friendly assistant icon in the same wobbly marker style: a robot head with a heart antenna, a speech bubble with a face, and a filled red chat button.</desc>
<g fill="none" stroke="var(--p)" stroke-width="5" stroke-linecap="round" stroke-linejoin="round" style="fill:none;stroke:rgb(11, 11, 11);color:rgb(11, 11, 11);stroke-width:5px;stroke-linecap:round;stroke-linejoin:round;opacity:1;font-family:&quot;Anthropic Sans&quot;, -apple-system, BlinkMacSystemFont, &quot;Segoe UI&quot;, sans-serif;font-size:16px;font-weight:400;text-anchor:start;dominant-baseline:auto">
<g transform="translate(150,120)" style="fill:none;stroke:rgb(11, 11, 11);color:rgb(11, 11, 11);stroke-width:5px;stroke-linecap:round;stroke-linejoin:round;opacity:1;font-family:&quot;Anthropic Sans&quot;, -apple-system, BlinkMacSystemFont, &quot;Segoe UI&quot;, sans-serif;font-size:16px;font-weight:400;text-anchor:start;dominant-baseline:auto">
<path d="M0,-39 Q2,-46 1,-53" style="fill:none;stroke:rgb(11, 11, 11);color:rgb(11, 11, 11);stroke-width:5px;stroke-linecap:round;stroke-linejoin:round;opacity:1;font-family:&quot;Anthropic Sans&quot;, -apple-system, BlinkMacSystemFont, &quot;Segoe UI&quot;, sans-serif;font-size:16px;font-weight:400;text-anchor:start;dominant-baseline:auto"/>
<path d="M1,-52 C-9,-62 -9,-72 -2,-72 C1,-72 1,-69 1,-68 C1,-69 2,-72 5,-72 C12,-72 12,-62 1,-52 Z" stroke="#E4245B" style="fill:none;stroke:rgb(228, 36, 91);color:rgb(11, 11, 11);stroke-width:5px;stroke-linecap:round;stroke-linejoin:round;opacity:1;font-family:&quot;Anthropic Sans&quot;, -apple-system, BlinkMacSystemFont, &quot;Segoe UI&quot;, sans-serif;font-size:16px;font-weight:400;text-anchor:start;dominant-baseline:auto"/>
<path d="M-44,-6 L-53,-5 L-54,10 L-44,9" style="fill:none;stroke:rgb(11, 11, 11);color:rgb(11, 11, 11);stroke-width:5px;stroke-linecap:round;stroke-linejoin:round;opacity:1;font-family:&quot;Anthropic Sans&quot;, -apple-system, BlinkMacSystemFont, &quot;Segoe UI&quot;, sans-serif;font-size:16px;font-weight:400;text-anchor:start;dominant-baseline:auto"/>
<path d="M45,-7 L54,-6 L54,9 L45,8" style="fill:none;stroke:rgb(11, 11, 11);color:rgb(11, 11, 11);stroke-width:5px;stroke-linecap:round;stroke-linejoin:round;opacity:1;font-family:&quot;Anthropic Sans&quot;, -apple-system, BlinkMacSystemFont, &quot;Segoe UI&quot;, sans-serif;font-size:16px;font-weight:400;text-anchor:start;dominant-baseline:auto"/>
<path d="M-44,-24 Q-45,-38 -30,-39 L30,-41 Q45,-40 45,-26 L46,20 Q46,35 31,35 L-30,36 Q-45,35 -44,21 Z" style="fill:none;stroke:rgb(11, 11, 11);color:rgb(11, 11, 11);stroke-width:5px;stroke-linecap:round;stroke-linejoin:round;opacity:1;font-family:&quot;Anthropic Sans&quot;, -apple-system, BlinkMacSystemFont, &quot;Segoe UI&quot;, sans-serif;font-size:16px;font-weight:400;text-anchor:start;dominant-baseline:auto"/>
<path d="M-22,-8 C-14,-9 -13,2 -20,2 C-27,2 -28,-7 -22,-8 Z" fill="var(--p)" style="fill:rgb(11, 11, 11);stroke:rgb(11, 11, 11);color:rgb(11, 11, 11);stroke-width:5px;stroke-linecap:round;stroke-linejoin:round;opacity:1;font-family:&quot;Anthropic Sans&quot;, -apple-system, BlinkMacSystemFont, &quot;Segoe UI&quot;, sans-serif;font-size:16px;font-weight:400;text-anchor:start;dominant-baseline:auto"/>
<path d="M18,-10 C26,-11 27,0 20,0 C13,0 12,-9 18,-10 Z" fill="var(--p)" style="fill:rgb(11, 11, 11);stroke:rgb(11, 11, 11);color:rgb(11, 11, 11);stroke-width:5px;stroke-linecap:round;stroke-linejoin:round;opacity:1;font-family:&quot;Anthropic Sans&quot;, -apple-system, BlinkMacSystemFont, &quot;Segoe UI&quot;, sans-serif;font-size:16px;font-weight:400;text-anchor:start;dominant-baseline:auto"/>
<path d="M-16,13 Q0,26 18,12" style="fill:none;stroke:rgb(11, 11, 11);color:rgb(11, 11, 11);stroke-width:5px;stroke-linecap:round;stroke-linejoin:round;opacity:1;font-family:&quot;Anthropic Sans&quot;, -apple-system, BlinkMacSystemFont, &quot;Segoe UI&quot;, sans-serif;font-size:16px;font-weight:400;text-anchor:start;dominant-baseline:auto"/>
<path d="M-33,9 Q-27,7 -26,12" stroke="#E4245B" stroke-width="4" style="fill:none;stroke:rgb(228, 36, 91);color:rgb(11, 11, 11);stroke-width:4px;stroke-linecap:round;stroke-linejoin:round;opacity:1;font-family:&quot;Anthropic Sans&quot;, -apple-system, BlinkMacSystemFont, &quot;Segoe UI&quot;, sans-serif;font-size:16px;font-weight:400;text-anchor:start;dominant-baseline:auto"/>
<path d="M28,8 Q34,6 35,11" stroke="#E4245B" stroke-width="4" style="fill:none;stroke:rgb(228, 36, 91);color:rgb(11, 11, 11);stroke-width:4px;stroke-linecap:round;stroke-linejoin:round;opacity:1;font-family:&quot;Anthropic Sans&quot;, -apple-system, BlinkMacSystemFont, &quot;Segoe UI&quot;, sans-serif;font-size:16px;font-weight:400;text-anchor:start;dominant-baseline:auto"/>
</g>
<g transform="translate(340,120)" style="fill:none;stroke:rgb(11, 11, 11);color:rgb(11, 11, 11);stroke-width:5px;stroke-linecap:round;stroke-linejoin:round;opacity:1;font-family:&quot;Anthropic Sans&quot;, -apple-system, BlinkMacSystemFont, &quot;Segoe UI&quot;, sans-serif;font-size:16px;font-weight:400;text-anchor:start;dominant-baseline:auto">
<path d="M-45,-30 Q-46,-42 -33,-42 L34,-44 Q46,-43 46,-31 L47,10 Q47,21 35,21 L6,22 L-8,38 L-9,22 L-33,21 Q-45,20 -45,9 Z" style="fill:none;stroke:rgb(11, 11, 11);color:rgb(11, 11, 11);stroke-width:5px;stroke-linecap:round;stroke-linejoin:round;opacity:1;font-family:&quot;Anthropic Sans&quot;, -apple-system, BlinkMacSystemFont, &quot;Segoe UI&quot;, sans-serif;font-size:16px;font-weight:400;text-anchor:start;dominant-baseline:auto"/>
<path d="M-19,-14 C-11,-15 -10,-4 -17,-4 C-24,-4 -25,-13 -19,-14 Z" fill="var(--p)" style="fill:rgb(11, 11, 11);stroke:rgb(11, 11, 11);color:rgb(11, 11, 11);stroke-width:5px;stroke-linecap:round;stroke-linejoin:round;opacity:1;font-family:&quot;Anthropic Sans&quot;, -apple-system, BlinkMacSystemFont, &quot;Segoe UI&quot;, sans-serif;font-size:16px;font-weight:400;text-anchor:start;dominant-baseline:auto"/>
<path d="M15,-16 C23,-17 24,-6 17,-6 C10,-6 9,-15 15,-16 Z" fill="var(--p)" style="fill:rgb(11, 11, 11);stroke:rgb(11, 11, 11);color:rgb(11, 11, 11);stroke-width:5px;stroke-linecap:round;stroke-linejoin:round;opacity:1;font-family:&quot;Anthropic Sans&quot;, -apple-system, BlinkMacSystemFont, &quot;Segoe UI&quot;, sans-serif;font-size:16px;font-weight:400;text-anchor:start;dominant-baseline:auto"/>
<path d="M-13,3 Q1,15 16,2" style="fill:none;stroke:rgb(11, 11, 11);color:rgb(11, 11, 11);stroke-width:5px;stroke-linecap:round;stroke-linejoin:round;opacity:1;font-family:&quot;Anthropic Sans&quot;, -apple-system, BlinkMacSystemFont, &quot;Segoe UI&quot;, sans-serif;font-size:16px;font-weight:400;text-anchor:start;dominant-baseline:auto"/>
<path d="M40,-49 C33,-57 33,-65 39,-65 C41,-65 42,-62 42,-61 C42,-62 43,-65 45,-65 C51,-65 51,-57 40,-49 Z" stroke="#E4245B" stroke-width="4" style="fill:none;stroke:rgb(228, 36, 91);color:rgb(11, 11, 11);stroke-width:4px;stroke-linecap:round;stroke-linejoin:round;opacity:1;font-family:&quot;Anthropic Sans&quot;, -apple-system, BlinkMacSystemFont, &quot;Segoe UI&quot;, sans-serif;font-size:16px;font-weight:400;text-anchor:start;dominant-baseline:auto"/>
</g>
</g>
<path d="M532,66 C563,64 588,89 587,120 C586,150 561,175 531,174 C500,175 476,150 477,119 C478,89 502,67 532,66 Z" fill="#E4245B" stroke="var(--p)" stroke-width="5" stroke-linejoin="round" style="fill:rgb(228, 36, 91);stroke:rgb(11, 11, 11);color:rgb(11, 11, 11);stroke-width:5px;stroke-linecap:butt;stroke-linejoin:round;opacity:1;font-family:&quot;Anthropic Sans&quot;, -apple-system, BlinkMacSystemFont, &quot;Segoe UI&quot;, sans-serif;font-size:16px;font-weight:400;text-anchor:start;dominant-baseline:auto"/>
<g transform="translate(532,124) scale(0.62)" fill="none" stroke="#FFFFFF" stroke-width="8" stroke-linecap="round" stroke-linejoin="round" style="fill:none;stroke:rgb(255, 255, 255);color:rgb(11, 11, 11);stroke-width:8px;stroke-linecap:round;stroke-linejoin:round;opacity:1;font-family:&quot;Anthropic Sans&quot;, -apple-system, BlinkMacSystemFont, &quot;Segoe UI&quot;, sans-serif;font-size:16px;font-weight:400;text-anchor:start;dominant-baseline:auto">
<path d="M0,-39 Q2,-46 1,-52" style="fill:none;stroke:rgb(255, 255, 255);color:rgb(11, 11, 11);stroke-width:8px;stroke-linecap:round;stroke-linejoin:round;opacity:1;font-family:&quot;Anthropic Sans&quot;, -apple-system, BlinkMacSystemFont, &quot;Segoe UI&quot;, sans-serif;font-size:16px;font-weight:400;text-anchor:start;dominant-baseline:auto"/>
<path d="M-44,-24 Q-45,-38 -30,-39 L30,-41 Q45,-40 45,-26 L46,20 Q46,35 31,35 L-30,36 Q-45,35 -44,21 Z" style="fill:none;stroke:rgb(255, 255, 255);color:rgb(11, 11, 11);stroke-width:8px;stroke-linecap:round;stroke-linejoin:round;opacity:1;font-family:&quot;Anthropic Sans&quot;, -apple-system, BlinkMacSystemFont, &quot;Segoe UI&quot;, sans-serif;font-size:16px;font-weight:400;text-anchor:start;dominant-baseline:auto"/>
<path d="M-22,-8 C-14,-9 -13,2 -20,2 C-27,2 -28,-7 -22,-8 Z" fill="#FFFFFF" style="fill:rgb(255, 255, 255);stroke:rgb(255, 255, 255);color:rgb(11, 11, 11);stroke-width:8px;stroke-linecap:round;stroke-linejoin:round;opacity:1;font-family:&quot;Anthropic Sans&quot;, -apple-system, BlinkMacSystemFont, &quot;Segoe UI&quot;, sans-serif;font-size:16px;font-weight:400;text-anchor:start;dominant-baseline:auto"/>
<path d="M18,-10 C26,-11 27,0 20,0 C13,0 12,-9 18,-10 Z" fill="#FFFFFF" style="fill:rgb(255, 255, 255);stroke:rgb(255, 255, 255);color:rgb(11, 11, 11);stroke-width:8px;stroke-linecap:round;stroke-linejoin:round;opacity:1;font-family:&quot;Anthropic Sans&quot;, -apple-system, BlinkMacSystemFont, &quot;Segoe UI&quot;, sans-serif;font-size:16px;font-weight:400;text-anchor:start;dominant-baseline:auto"/>
<path d="M-16,13 Q0,26 18,12" style="fill:none;stroke:rgb(255, 255, 255);color:rgb(11, 11, 11);stroke-width:8px;stroke-linecap:round;stroke-linejoin:round;opacity:1;font-family:&quot;Anthropic Sans&quot;, -apple-system, BlinkMacSystemFont, &quot;Segoe UI&quot;, sans-serif;font-size:16px;font-weight:400;text-anchor:start;dominant-baseline:auto"/>
</g>
<g text-anchor="middle" style="fill:rgb(82, 81, 78);stroke:none;color:rgb(11, 11, 11);stroke-width:1px;stroke-linecap:butt;stroke-linejoin:miter;opacity:1;font-family:&quot;Anthropic Sans&quot;, -apple-system, BlinkMacSystemFont, &quot;Segoe UI&quot;, sans-serif;font-size:12px;font-weight:400;text-anchor:middle;dominant-baseline:auto">
<text x="150" y="205" style="fill:rgb(82, 81, 78);stroke:none;color:rgb(11, 11, 11);stroke-width:1px;stroke-linecap:butt;stroke-linejoin:miter;opacity:1;font-family:&quot;Anthropic Sans&quot;, -apple-system, BlinkMacSystemFont, &quot;Segoe UI&quot;, sans-serif;font-size:12px;font-weight:400;text-anchor:middle;dominant-baseline:auto">Assistant avatar</text><text x="340" y="205" style="fill:rgb(82, 81, 78);stroke:none;color:rgb(11, 11, 11);stroke-width:1px;stroke-linecap:butt;stroke-linejoin:miter;opacity:1;font-family:&quot;Anthropic Sans&quot;, -apple-system, BlinkMacSystemFont, &quot;Segoe UI&quot;, sans-serif;font-size:12px;font-weight:400;text-anchor:middle;dominant-baseline:auto">Softer, no robot</text><text x="532" y="205" style="fill:rgb(82, 81, 78);stroke:none;color:rgb(11, 11, 11);stroke-width:1px;stroke-linecap:butt;stroke-linejoin:miter;opacity:1;font-family:&quot;Anthropic Sans&quot;, -apple-system, BlinkMacSystemFont, &quot;Segoe UI&quot;, sans-serif;font-size:12px;font-weight:400;text-anchor:middle;dominant-baseline:auto">Floating chat button</text>
</g>
</svg>